<?xml version="1.0" encoding="UTF-8" standalone="no"?>
<svg
   id="svg"
   width="450"
   height="333.22958"
   viewBox="0 0 450 333.22957"
   version="1.1"
   sodipodi:docname="wizard outlined.svg"
   inkscape:version="1.1.1 (3bf5ae0d25, 2021-09-20)"
   xmlns:inkscape="http://www.inkscape.org/namespaces/inkscape"
   xmlns:sodipodi="http://sodipodi.sourceforge.net/DTD/sodipodi-0.dtd"
   xmlns:xlink="http://www.w3.org/1999/xlink"
   xmlns="http://www.w3.org/2000/svg"
   xmlns:svg="http://www.w3.org/2000/svg">
  <defs
     id="defs22">
    <clipPath
       clipPathUnits="userSpaceOnUse"
       id="clipPath172">
      <use
         x="0"
         y="0"
         xlink:href="#g168"
         id="use174"
         width="100%"
         height="100%"
         transform="translate(-37.489971,3.7586282)" />
    </clipPath>
  </defs>
  <sodipodi:namedview
     id="namedview20"
     pagecolor="#505050"
     bordercolor="#ffffff"
     borderopacity="1"
     inkscape:pageshadow="0"
     inkscape:pageopacity="0"
     inkscape:pagecheckerboard="1"
     showgrid="false"
     inkscape:zoom="5.6568543"
     inkscape:cx="354.46186"
     inkscape:cy="109.40839"
     inkscape:window-width="2736"
     inkscape:window-height="1790"
     inkscape:window-x="-11"
     inkscape:window-y="-11"
     inkscape:window-maximized="1"
     inkscape:current-layer="svg"
     showguides="false"
     inkscape:rotation="3" />
  <path
     id="path929"
     style="fill:#000000;fill-opacity:1;stroke-width:0.451209"
     d="m 311.85742,1.0859375 c -4.72726,3.0422809 -10.1813,5.5633743 -16.96289,7.9472656 -8.50202,2.7020599 -16.62808,3.3459109 -25.76367,4.1249999 -10.31169,0.879387 -18.28552,0.922472 -27.66602,0.521485 -9.05677,-0.387151 -21.27671,-0.79487 -30.35937,-0.306641 -6.06705,0.326139 -12.06287,1.129412 -17.56641,3.878906 -6.37186,3.183276 -9.58318,8.725729 -8.77734,15.070313 0.51521,4.056343 2.09788,7.772053 4.14844,11.300781 5.18409,8.593757 12.09887,16.379475 17.84654,22.716112 -11.9907,0.326366 -25.81532,-3.570531 -35.1024,-8.23955 -11.05909,-5.719443 -23.45302,-15.28631 -35.07227,-23.503906 5.16954,8.181651 6.38874,9.533199 8.69336,14.570313 1.24943,2.542726 2.5823,5.102845 2.6582,8.029296 0.0624,2.407084 -0.7404,3.136427 -3.15429,2.789063 -2.56487,-0.369102 -4.93655,-1.381784 -7.28516,-2.417969 C 124.96558,52.038891 113.16825,45.166549 101.4082,38.246094 88.425584,30.588689 73.158373,20.835511 58.203125,11.648438 57.35513,12.772573 56.667066,13.860667 55.925781,15.048828 73.72259,29.290363 100.78445,46.293993 112.52734,62.171875 95.99988,61.890939 89.861114,68.19671 94.267578,80.78125 c 1.417389,4.031761 3.806845,7.454847 6.539062,10.673828 1.83569,2.162745 4.45493,4.424593 6.29697,6.474881 -3.49342,3.652581 -11.757131,5.564061 -15.882907,6.050511 -7.413164,0.81642 -14.816333,0.0565 -22.173828,-0.58399 C 53.39474,102.03398 37.901021,99.501164 22.498047,96.427734 19.05185,95.74008 15.681193,95.002275 12.205078,94.263672 11.668222,96.237106 11,98.515625 11,98.515625 c 11.853107,3.306435 24.363964,5.991475 37.78125,9.796875 16.097989,4.38766 30.76311,8.63125 46.226562,14.98242 2.518559,1.03443 4.999618,2.1483 7.238278,3.70313 1.96325,1.36331 1.94435,2.36503 -0.006,3.78711 -1.17166,0.85445 -2.532909,1.31965 -3.89648,1.77539 -7.232378,1.914 -17.525678,3.58 -27.851562,4.62304 9.292046,1.45702 28.059188,3.27247 38.615232,6.24414 0,0 0.11838,1.92914 0.4082,3.05079 0.48033,1.85877 1.41065,3.64157 3.16797,5.22265 -0.32011,-2.35017 -0.95244,-5.325 0.33969,-7.80499 8.74155,2.33128 16.56327,5.18551 25.82441,13.00904 -4.00848,3.54475 -8.53784,6.95165 -12.2605,9.63968 -6.03331,4.08225 -11.92487,8.12257 -18.89774,10.20119 -4.46689,1.33153 -9.717069,-2.73617 -8.976559,-7.30078 0.614411,-3.72934 3.779469,-10.0995 6.504359,-14.7117 -4.07588,2.15845 -13.225163,6.31316 -21.922328,4.34061 -9.648494,-2.59423 -18.717368,-7.76873 -37.263672,-17.48242 12.932186,16.25302 19.353319,26.35078 23.818359,41.95117 3.514923,12.28078 3.021439,22.25406 1.644532,38.21289 2.709771,-3.28148 4.625392,-5.72499 6.042968,-7.03516 5.514601,-5.09666 11.386806,-4.08235 17.615235,0.0664 5.348656,3.56276 9.331236,8.48858 13.148436,13.51562 7.38153,9.80947 13.91761,23.75852 19.5,36.10157 -1.25235,-10.43088 -1.63339,-17.306 -1.16211,-22.94336 0.28552,-2.95084 1.59046,-10.51597 4.15821,-14.0918 2.69144,-3.74807 7.04262,-6.39081 11.88085,-6.41211 5.10533,-0.0224 9.4519,2.18869 13.58008,5.28516 7.15587,5.35876 16.53278,14.26454 22.69922,21.29687 -8.4729,9.35273 -9.12883,15.78714 -7.44726,25.41016 v 0.006 c 2.63975,11.06621 5.91645,18.80803 12.26367,25.2832 9.01809,9.11233 26.3389,15.75332 37.91406,11.72656 4.75625,8.01659 12.46084,15.50276 20.53711,17.76563 5.90444,1.56838 12.49119,0.89912 17.59961,-3.01953 2.89617,-2.32212 4.93968,-4.64373 6.50781,-6.74414 2.1575,-2.53006 3.93233,-5.31606 5.46094,-8.28907 0.0274,-0.0533 0.062,-0.0701 0.0898,-0.12109 1.0199,-0.25327 2.07852,-0.4962 2.32422,-0.52539 0.64071,0.91997 1.20756,1.94703 1.9043,2.77734 3.01895,3.59772 6.60911,6.46253 11.09961,7.57422 4.49049,1.11168 9.87676,-0.3183 13.45898,-3.90625 0.94461,-0.94595 1.75993,-1.96276 2.48633,-3.02539 0.90285,-1.07055 1.73583,-2.2677 2.45703,-3.63281 3.43121,-6.49459 3.8087,-13.41298 2.63477,-20.50781 -0.54426,-3.28901 -1.28028,-6.54831 -2.42383,-9.86719 4.27664,0.52428 8.14933,1.43188 12.36914,0.73437 3.35589,-0.56965 6.72941,-2.2071 9.08008,-4.8164 2.19349,-2.02493 3.82554,-4.69566 4.58008,-7.9336 1.14146,-4.89833 0.76474,-9.81525 -0.24024,-14.67187 -2.46261,-11.90096 -8.07798,-23.62687 -17.25976,-32.20508 -1.86389,-1.53999 -3.28029,-2.85265 -5.25,-3.96875 19.82009,-8.42035 50.55833,-0.21564 68.44531,4.0332 -4.51938,-2.67201 -12.27128,-6.58336 -16.52735,-9.57031 -2.96177,-2.20149 -4.01221,-4.07988 -3.49218,-6.70117 0.50239,-2.53252 3.17056,-4.92317 6.07031,-5.375 7.10295,-1.04761 13.62277,2.80532 21.35351,5.4375 -10.65714,-7.53201 -22.96649,-13.33965 -32.4414,-24.74805 -5.21038,-6.01365 -9.93464,-12.78146 -11.24219,-20.83203 -1.05934,-8.04384 2.13041,-14.72616 4.69727,-21.83398 -13.60668,6.40606 -24.48343,5.35621 -34.00977,3.16797 -2.13132,-0.50877 -5.2098,-1.42373 -7.53906,-2.35547 -0.5491,-4.81155 -2.14317,-9.21662 -5.16406,-13.54492 -0.54164,-0.81304 -1.38499,-1.99574 -2.16797,-3.10547 10.37709,-14.52847 25.94448,-27.426442 36.74414,-35.117191 9.18267,13.313731 12.71357,43.569511 14.17969,76.066411 0.16885,3.74267 3.87907,3.0049 4.26367,-0.17579 1.76122,-14.5657 3.17214,-30.50376 3.17968,-44.02734 -0.0171,-3.75405 0.0962,-9.65739 -0.0605,-16.64648 8.04601,16.50094 11.09341,34.99968 15.39453,52.28711 -0.19214,-7.64878 1.65013,-26.31884 2.13086,-32.64454 0.5625,-4.07177 1.28516,-8.0972 3.01758,-11.89062 1.59808,-3.4994 4.18193,-5.35204 8.14648,-5.27734 2.72942,0.0515 5.42115,0.24046 8.08399,0.9082 10.78078,2.79242 33.91286,13.8757 45.12109,19.26367 -3.45346,-2.57949 -14.58703,-12.03578 -17.87109,-14.80078 -6.60634,-6.42129 -6.94323,-13.635593 0.55273,-18.945313 5.26763,-3.732334 13.30352,-8.209062 21.25,-10.691406 -3.65935,-0.488868 -7.04754,-1.002425 -10.41406,-1.685547 -13.99206,-2.806754 -32.14901,-5.590486 -46.35938,-14.001953 -11.15876,-6.665346 -13.14074,-15.75364 -11.73828,-27.841797 0.83173,-7.509539 6.19733,-24.463543 9.67383,-33.0527346 -7.35749,9.2071096 -15.10895,14.2541316 -19.5957,17.3808596 -6.50749,4.196227 -17.35495,9.890574 -24.44922,11.953125 -1.83772,0.53429 -3.96399,1.49713 -6.0918,2.113281 -5.09653,-2.380212 -12.17476,-4.154698 -20.99023,-3.861328 -2.74814,0.103063 -5.37218,0.337557 -7.93946,0.630859 -4.57595,-2.084338 -7.81002,-6.611595 -5.85547,-11.24414 1.88019,-4.341752 9.30894,-12.7193259 14.39844,-17.7675785 z M 212.38281,33.365234 c 2.81943,0.259359 5.47751,1.242375 8.0586,2.425782 8.72379,3.999741 15.72274,10.158863 21.83984,17.373046 -5.74915,2.553801 -11.83306,5.298619 -19.04492,8.628907 -5.34153,-3.823013 -11.17652,-7.950323 -15.18164,-13.064453 -1.67419,-2.137825 -3.14284,-4.38768 -4.03516,-6.96875 -1.56364,-4.523063 0.6615,-7.928952 5.48633,-8.392578 0.97878,-0.09406 1.93714,-0.08836 2.87695,-0.002 z"
     sodipodi:nodetypes="ccssssscccccssscccccscccscccscccccccccccccccsccscccsccccccccccsccssccsscccssccccsccccccccccssccccssccccccccccsccccccsccscsccs" />
  <g
     inkscape:label="Clip"
     id="g168"
     style="display:inline;fill:#ffffff;stroke:none;stroke-width:3;stroke-linecap:butt;stroke-linejoin:round;stroke-miterlimit:4;stroke-dasharray:none;stroke-opacity:1;paint-order:markers stroke fill"
     transform="translate(37.489971,-3.7586282)">
    <g
       id="svgg"
       style="fill:#ffffff;stroke:none;stroke-width:3;stroke-linecap:butt;stroke-linejoin:round;stroke-miterlimit:4;stroke-dasharray:none;stroke-opacity:1;paint-order:markers stroke fill">
      <path
         id="path306"
         d="m 262.234,14.591 c -6.955,7.123 -8.197,14.416 -3.308,19.427 1.151,1.179 1.154,1.165 -0.327,1.539 -3.453,0.872 -15.33,5.092 -26.29,9.339 -9.152,3.548 -11.243,4.425 -17.89,7.502 -3.412,1.58 -6.219,2.851 -6.237,2.825 -3.697,-5.311 -11.639,-13.05 -17.365,-16.921 -12.679,-8.573 -23.766,-9.627 -28.28,-2.687 -4.287,6.593 3.095,18.458 18.609,29.91 l 1.96468,1.411775 -6.66933,3.55242 C 167.09074,60.32418 148.57511,40.776229 152.82,30.506 c 1.64,-3.169 4.17,-5.011 9.061,-6.599 6.516,-2.116 17.6,-2.773733 28.19701,-2.791704 22.4427,-0.215104 54.16024,1.510057 73.72098,-8.293496 0,0 -0.42123,0.598362 -1.56499,1.7692 m 76.34377,1.516435 c -3.91673,9.695369 -8.20943,20.570342 -8.30577,29.833565 0.11599,11.434168 6.29796,20.776162 16.113,25.275 15.91497,7.472383 32.58614,9.543823 47.30442,12.78565 -11.26393,3.751543 -17.53216,9.633279 -19.16218,15.557112 -2.27707,9.070258 4.20684,12.421118 10.69921,17.770598 -9.20047,-4.58465 -29.48877,-16.9005 -41.64645,-15.52036 -8.491,1.223 -12.426,10.529 -12.445,29.436 -0.004,3.317 -0.045,6.031 -0.092,6.031 -0.046,0 -0.171,-0.508 -0.277,-1.128 -0.106,-0.621 -0.546,-2.844 -0.978,-4.942 -3.145,-15.274 -7.26089,-28.06528 -11.62089,-34.223281 l -0.523,-0.74 -0.11622,-3.201838 C 317.52689,76.921881 314.503,62.483 310.183,54.039 307.642,48.918271 304.35776,44.944557 298.977,39.466 313.36853,34.075759 330.28464,24.932259 338.57777,16.107435 M 279.348,39.078 c 4.033,0.296 9.755,1.959 12.399,3.604 19.73582,12.192023 21.81697,39.727532 22.655,58.252 0.086,2.226 0.232,5.552 0.326,7.393 1.04048,17.69787 -0.24354,31.18094 -1.3745,48.0605 -0.178,2.719 -0.5785,8.4375 -0.8105,8.4375 -0.05,0 -0.094,-3.835 -0.098,-8.522 -0.18139,-19.67197 -3.60952,-57.78074 -13.988,-72.565 -3.628,0.061 -23.69,6.697 -40.091,13.261 -5.882,2.355 -6.07,2.428 -6.07,2.375 0,-0.028 -0.438,0.126 -0.973,0.342 -0.535,0.217 -1.463,0.589 -2.062,0.828 -2.022,0.805 -7.925,3.438 -9.775,4.36 -1.197,0.597 -1.859,0.851 -1.901,0.729 -0.036,-0.102 -0.305,-1.131 -0.599,-2.287 -2.899,-11.401 -7.912,-18.727 -17.286,-25.265 -2.346,-1.636 -7.177,-4.154 -9.739,-5.076 -0.3,-0.108 -0.685,-0.253 -0.856,-0.324 -0.171,-0.07 -0.512,-0.171 -0.756,-0.225 -0.245,-0.053 -0.736,-0.229 -1.09,-0.391 -3.008,-1.371 -14.00648,-2.481126 -17.10748,-1.921126 0.84637,-0.591256 3.47595,-1.774864 6.26848,-3.185874 4.439,-2.245 8.348,-4.113 11.206,-5.356 0.985,-0.428 3.366,-1.499 5.292,-2.38 9.842,-4.503 37.597,-15.072 48.483,-18.462 5.103,-1.59 11.293,-2.17 17.947,-1.682 M 57.151,41.963 c 20.764,12.766 41.413,23.311 48.407,24.721 7.26146,1.558721 10.99347,-4.948015 1.95973,-18.596828 16.08667,13.7816 39.35387,24.384303 60.29204,26.283886 -7.59009,3.080165 -12.17817,7.11187 -17.68652,12.019431 C 128.31058,79.477997 104.78201,68.73589 82.143,66.279 L 80.162,66.087 79.581,65.145 C 71.614114,54.493781 64.05837,48.389014 54.961833,40.707183 M 107.549,83.216 c 17.24983,5.300475 20.75975,7.148163 37.15672,13.058831 -4.07755,8.623959 -6.62658,16.945529 -7.47572,25.636169 -3.82301,2.02117 -8.06556,3.26742 -11.725,2.952 l -1.94,-1.93 c -5.326,-5.299 -11.948,-8.036 -20.116,-8.313 l -3.243,-0.11 C 95.357279,110.80897 90.323384,106.5527 86.226,103.13 83.469,100.901 76.420892,94.548202 72.396,89.81 69.042433,85.862099 63.601319,79.760411 66.479,77.496 67.944619,76.342723 70.746334,75.859894 77.752504,76.399513 84.322673,76.907131 93.537,79.219 107.549,83.216 Z m 92.14,-4.701 c 15.183,2.508 27.524,11.334 32.27,23.08 0.518,1.282 0.411,1.237 -1.113,-0.473 -4.534,-5.088 -11.527,-9.705 -17.941,-11.843 -5.634,-1.879 -9.49,-2.427 -18.742,-2.663 -4.203,-0.108 -4.176,-0.145 -1.045,1.457 1.958,1.002 6.332,3.694 8.553,5.266 1.438,1.017 4.648,4.136 5.519,5.362 0.283,0.399 1.013,1.414 1.623,2.257 0.61,0.843 1.41,2.093 1.779,2.777 l 0.669,1.246 -1.623,-1.56 c -5.708,-5.487 -10.604,-8.027 -19.26,-9.994 -0.373,-0.085 -0.186,0.211 3.74,5.919 2.883,4.192 6.379,12.046 7.217,16.218 0.138,0.685 0.288,1.409 0.335,1.61 0.076,0.329 -0.04,0.286 -1.221,-0.456 -11.801,-7.417 -26.727,-7.523 -39.732,-0.283 -7.901,4.398 -17.10794,13.73597 -21.24994,21.10097 0.25353,-10.67218 6.73649,-29.93814 15.63894,-40.64897 10.733,-12.654 30.323,-20.727 44.583,-18.372 m 7.037,13.633 c 0.88,0.176 1.776,0.352 1.99,0.392 7.906,1.474 18.177,7.634 23.159,13.888 1.538,1.931 1.526,1.77 0.183,2.446 -6.937,3.493 -18.258,10.449 -23.459,14.414 -1.961,1.496 -2.218,1.648 -2.218,1.322 0,-1.392 -2.21,-11.028 -3.109,-13.559 -0.183,-0.514 -0.574,-1.658 -0.87,-2.543 -0.296,-0.884 -0.67,-1.9 -0.831,-2.257 -0.161,-0.356 -0.588,-1.348 -0.951,-2.203 -0.362,-0.855 -1.105,-2.355 -1.651,-3.334 -1.002,-1.796 -1.103,-2.037 -0.857,-2.037 0.194,0 2.499,0.761 3.055,1.008 2.783,1.239 3.793,1.723 4.107,1.969 0.204,0.16 0.431,0.292 0.504,0.292 0.235,0 3.685,2.3 4.374,2.916 1.039,0.93 2.154,1.794 2.224,1.724 0.035,-0.035 -0.042,-0.445 -0.171,-0.912 -0.129,-0.467 -0.265,-0.989 -0.302,-1.16 -0.236,-1.095 -2.07,-5.408 -2.878,-6.77 -1.379,-2.324 -3.616,-5.386 -4.076,-5.578 -0.175,-0.073 -0.155,-0.337 0.026,-0.337 0.083,0 0.871,0.144 1.751,0.319 m -117.362,25.284 -1.288,0.7 C 78.184785,125.76847 73.360797,133.41958 71.976218,143.69707 69.378292,143.10906 57.993,141.213 51.518,140.837 c -1.879029,-0.10908 -4.371195,-0.24125 -4.371195,-0.24125 0,0 1.874449,-0.23045 3.826195,-0.43575 11.545,-1.216 17.976,-4.197 17.976,-8.331 0,-2.642 -1.465,-4.029 -7.237,-6.849 -16.126022,-8.39531 -34.238794,-12.8466 -49.659158,-17.07666 11.500367,1.47819 23.200468,2.82333 34.795158,3.12166 9.035,0.191 18.828524,-3.24242 25.248524,-7.68142 M 167.262,120.754 c 4.47172,4.00712 7.28095,12.54263 8.05321,15.78312 -3.28836,-2.9716 -8.64187,-5.17929 -12.49621,-2.84012 -3.697,2.39 -6.211,7.211 -6.238,11.963 l -0.005,0.835 0.982,-0.919 c 4.803,-4.493 10.318,2.373 8.905,11.087 -1.221,7.529 -6.44,10.851 -9.924,6.317 -0.273,-0.355 -0.542,-0.645 -0.597,-0.645 -0.194,0 0.328,2.668 0.694,3.548 0.203,0.488 0.489,1.373 0.636,1.966 0.326,1.321 0.783,2.369 1.557,3.577 l 0.591,0.921 -0.527,0.431 c -1.591,1.303 -10.111,6.249 -15.736,9.135 l -2.135,1.096 -0.761,-1.038 c -5.13,-6.997 -6.767,-18.032 -4.618,-31.128 1.234,-7.52 3.439,-12.17 7.16,-15.097 0.223,-0.175 1.189,-1.053 2.147,-1.95 5.42376,-5.57514 18.72903,-12.42161 21.45683,-13.73526 M 110.067,120.748 c 3.963,0.867 8.015,2.738 12.103,5.587 1.153,0.804 4.25167,3.92224 5.301,5.334 0.47067,0.63324 1.18921,1.5669 2.35499,3.52248 -8.99164,-3.90531 -30.183597,-5.83098 -38.73599,1.85952 -0.550258,0.52671 -1.2676,1.414 -1.2676,1.414 0.94851,-5.37042 4.884279,-10.51364 8.8966,-13.003 l 1.619,-0.896 c 0,0 -2.200137,-0.11283 -6.631,1.522 -7.586833,3.11084 -13.943873,9.58681 -18.403828,18.24334 0.617674,-6.29504 5.364019,-14.48462 10.735828,-18.21034 4.799,-3.16 8.558,-4.62 14.194,-5.513 2.553,-0.404 7.679,-0.331 9.834,0.14 m 154.5866,20.79759 c 0.33924,4.168 0.23062,7.41205 -0.1846,10.59441 -0.69555,5.33081 -2.493,11.72 -4.193,15.486 -3.90552,9.5031 -9.991,18.00256 -16.16,25.681 0,0 -0.70243,-0.79632 -3.85496,-3.06874 -3.46634,-2.49862 -4.57738,-3.19358 -4.57738,-3.19358 7.18148,-5.44738 13.61562,-11.3948 17.96434,-17.88868 3.761,-5.622 5.292,-9.315 6.508,-15.693 0.68307,-4.23512 0.80431,-8.54101 0.253,-12.695 -0.84351,-4.84096 -2.47824,-7.10584 -5.15457,-10.15631 l 2.74134,-4.83018 c 3.85286,4.86516 6.10711,8.99765 6.65783,15.76408 z M 91.007129,128.92706 c -2.925388,6.54965 -4.893507,12.53073 -5.364313,19.02109 -3.153961,-1.1287 -6.213982,-2.15095 -8.94971,-3.04175 0.987881,-2.5153 4.909726,-8.5401 8.413243,-11.87808 2.027821,-1.84079 5.037542,-3.98828 5.90078,-4.10126 m 17.358811,5.76117 c -1.811,3.59 -4.4337,14.77359 -2.70258,22.53206 l -2.27279,1.70913 c -4.979438,-4.5293 -8.746487,-7.20972 -16.173401,-10.30838 1.814377,-3.5624 4.572612,-7.42732 7.535831,-9.50506 3.883284,-2.66328 8.91398,-4.49507 13.61294,-4.42777 m 5.42106,0.15977 c 4.60431,-0.4098 11.13371,1.23814 13.19325,2.18376 0.70099,1.32604 1.07721,4.11639 1.07775,4.33424 -1.006,-0.798 -3.911,-0.874 -5.44,-0.142 -2.484,1.188 -4.464,4.488 -4.732,7.884 l -0.104,1.32 0.603,-0.576 c 3.223,-3.077 7.096,1.16 6.324,6.92 -0.713,5.322 -3.963,7.873 -6.611,5.188 l -0.782,-0.793 0.114,0.856 c 0.063,0.471 0.216,1.137 0.34,1.479 0.124,0.342 0.435,1.253 0.692,2.023 1.723,5.171 6.578,6.856 10.247,3.557 1.058,-0.952 1.078,-0.867 0.317,1.373 -3.366,9.905 -9.161,13.139 -14.268,7.965 -2.79,-2.826 -5.299,-8.957 -5.955,-14.553 -0.318,-2.714 -0.5,-2.175 2.519,-7.447 1.495,-2.611 2.699,-4.77 2.676,-4.798 -0.022,-0.028 -1.255,0.86 -2.738,1.975 -1.764,1.324 -2.73658,2.01464 -2.73658,2.01464 -0.84713,-6.51377 0.99923,-14.98816 5.26358,-20.76364 m 144.46581,9.81939 -6.81877,-5.0324 c 0.57017,-1.87752 1.55662,-4.03943 2.37901,-5.56866 3.02466,1.93218 4.64829,6.84356 4.43976,10.60106 z m 44.92619,4.04861 c -2.614,6.695 -2.844,12.366 -0.747,18.442 0.86866,2.8434 2.08418,5.63989 3.64,8.173 2.299,3.626 3.733,5.616 5.817,8.08 1.06,1.252 5.888,6.112 6.306,6.348 0.107,0.06 0.504,0.401 0.883,0.758 3.986,3.43525 7.18342,5.85562 11.18444,8.47669 -4.04252,-0.16153 -9.56037,0.64008 -11.97544,3.12636 -3.02535,3.17331 -2.85701,9.80924 1.09255,13.70887 -8.55431,-2.28358 -18.2912,-3.40628 -26.15701,-3.48156 -11.66116,-0.17272 -20.84232,0.65307 -28.79398,6.60848 l -4.18556,-0.32279 c -1.74697,-7.36577 -6.41754,-14.26375 -10.69408,-19.53053 0,0 2.40934,0.85026 9.24508,3.14953 12.82361,3.50634 23.69346,7.00829 35.292,8.46 4.672,0.589 13.183,0.251 15.461,-0.615 7.1,-2.7 8.84,-8.217 5.074,-16.089 -9.0064,-13.85766 -20.2972,-23.46823 -33.298,-33.395 -4.77071,-3.73457 -9.87269,-7.41539 -14.44263,-10.58437 0.25125,-2.29478 0.2656,-4.27696 0.20903,-6.60141 1.97192,0.81267 9.71462,3.04378 13.27662,3.42678 3.43983,0.33436 7.00666,0.50128 10.451,0.176 5.68331,-0.5463 10.56341,-1.58523 15.11363,-4.47478 M 19.72,154.42 c 13.961169,8.06793 28.231161,16.45568 42.804,8.909 -3.69113,5.50816 -6.996763,14.46219 -2.786,18.901 3.008,2.931 5.275,3.518 9.442,2.449 9.043,-2.322 25.120606,-13.64982 40.30761,-28.49682 2.14129,-1.97369 2.84965,-2.67029 2.84965,-2.67029 -1.11694,1.74363 -2.26224,3.41577 -3.32026,5.08711 -12.244,17.103 -12.446,32.606 -0.457,35.098 11.26,2.34 36.746,-6.912 55.799,-20.257 2.11889,-1.45614 4.50323,-3.03926 6.299,-4.386 -1.82235,7.18249 -2.59771,16.08213 -0.258,21.733 l -1.659,1.371 c -15.976,13.206 -23.652,34.46 -19.851,54.961 0.066,0.354 0.03,0.523 -0.118,0.566 -0.116,0.035 -0.826,0.206 -1.578,0.382 -0.751,0.176 -1.917,0.558 -2.592,0.85 l -1.227,0.53 -1.943,-2.275 c -22.564,-26.419 -40.666,-33.632 -50.613,-20.168 -4.585,6.207 -6.083,16.515 -3.986,27.432 0.164856,0.85902 0.515924,2.50007 0.515924,2.50007 0,0 -0.523994,-1.20529 -0.667924,-1.64407 -3.064,-9.343 -11.809,-25.373 -18.276,-33.502 -11.321,-14.229 -23.391,-16.577 -30.032,-5.842 -0.504,0.815 -0.933,1.465 -0.952,1.444 -0.02,-0.021 0.096,-0.807 0.257,-1.748 2.816,-16.457 -1.549,-35.962 -11.53,-51.519 -3.533744,-5.02647 -5.705487,-8.18783 -9.122931,-11.61021 0,0 1.274607,0.86508 2.694931,1.90521 m 191.875,38.182 c 9.458,0.953 19.856,5.278 26.537,11.039 5.286,4.558 8.046,7.683 11.02,12.481 0.794,1.279 2.366,4.306 2.366,4.553 0,0.075 -0.893,0.841 -1.985,1.702 -4.841,3.817 -6.261,6.763 -6.263,12.994 -0.004,7.031 2.897,15.132 8.337,23.283 l 0.66,0.989 -0.266,0.957 c -0.397,1.429 -1.137,2.91 -1.417,2.84 -0.129,-0.032 -1.214,-0.349 -2.413,-0.703 -10.199,-3.018 -17.99,5.23 -18.4,19.481 l -0.088,3.075 -0.873,0.476 c -3.816,2.084 -11.159,4.255 -15.514,4.587 l -1.411,0.108 -0.27,-0.757 c -1.301,-3.65 -2.158,-5.296 -3.866,-7.43 -6.996,-8.743 -20.103,-8.62 -26.234,0.246 l -0.615,0.89 -1.532,-0.944 c -1.87,-1.152 -3.264,-2.276 -5.898,-4.756 l -2.017,-1.898 0.04,-2.694 c 0.183,-12.398 -4.071,-20.914 -12.141,-24.304 -1.566,-0.658 -1.471,-0.47 -1.756,-3.466 -1.131,-11.889 2.342,-23.68 10.036,-34.067 3.208,-4.331 9.978,-10.083 15.17,-12.888 8.933,-4.829 18.755,-6.805 28.793,-5.794 m -25.65418,26.40189 c 6.71554,4.76547 8.19164,11.1171 9.86736,19.17497 1.36097,-8.08211 3.62659,-16.57096 9.72496,-19.64195 -6.34105,-1.2705 -9.62437,-7.98545 -11.22898,-13.5997 -1.07946,5.98682 -1.7217,11.59423 -8.36334,14.06668 z m 76.07522,3.88208 c 7.869,0.901 16.995,10.465 21.444,22.471 3.012,8.131 3.941,12.265 4.117,18.314 0.241,8.327 -2.094,12.145 -8.044,13.155 -2.103,0.357 -2.976,0.281 -9.105,-0.796 -2.873,-0.505 -5.688,-0.567 -7.233,-0.16 -0.682,0.18 -1.025,0.211 -1.063,0.098 -0.721,-2.163 -5.445,-8.199 -7.868,-10.054 -0.683,-0.522 -0.989,-0.855 -0.931,-1.011 0.047,-0.129 0.403,-1.039 0.79,-2.024 1.012,-2.576 1.023,-2.393 -0.284,-4.747 -6.445,-11.606 -8.728,-22.348 -5.953,-28.011 1.038,-2.118 2.639,-3.936 4.131,-4.688 0.453,-0.228 0.861,-0.474 0.908,-0.546 0.416,-0.647 4.851,-1.919 7.464,-2.141 0.129,-0.011 0.861,0.052 1.627,0.14 m -88.89041,11.43279 c 4.5187,2.93156 5.30181,7.27516 6.57992,12.9276 0.95875,-5.78858 1.9569,-11.20457 6.83149,-13.34939 -4.96652,-1.29408 -6.66907,-5.04796 -7.91261,-9.50261 -0.62752,4.58667 -1.10152,7.52705 -5.4988,9.9244 z m -18.26159,19.51321 c 3.945,0.543 6.407,2.306 9.264,6.635 0.615,0.933 1.942,3.454 1.942,3.691 0,0.069 0.133,0.422 0.295,0.785 1.067,2.389 2.36,7.27 3.288,12.411 0.696,3.864 0.62,3.611 1.28,4.229 0.335,0.314 1.077,0.886 1.648,1.271 0.571,0.385 1.178,0.829 1.349,0.987 0.171,0.157 1.258,0.998 2.416,1.868 2.977,2.237 2.773,1.897 2.361,3.928 -0.797,3.934 -0.474,8.456 0.921,12.931 0.334,1.07 0.607,2.016 0.607,2.101 0,0.086 0.098,0.344 0.218,0.573 0.12,0.23 0.268,0.65 0.33,0.934 0.061,0.284 0.243,0.776 0.403,1.094 0.566,1.117 0.812,1.057 -4.328,1.057 -2.542,0 -5.028,-0.07 -5.526,-0.156 -0.497,-0.085 -1.342,-0.228 -1.877,-0.316 -2.594,-0.427 -5.755,-1.262 -7.08,-1.871 -0.363,-0.167 -0.715,-0.303 -0.783,-0.303 -4.84182,-2.11373 -8.92458,-5.06245 -12.256,-9.257 -0.255,-0.341 -0.663,-0.831 -0.906,-1.089 -0.411,-0.435 -1.971,-2.67 -1.971,-2.822 0,-0.037 -0.19,-0.364 -0.422,-0.726 -4.3931,-8.27269 -8.42172,-17.28973 -6.582,-26.895 1.31,-6.172 4.6,-9.959 9.395,-10.814 2.01417,-0.53356 4.20868,-0.48634 6.014,-0.246 m 92.451,14.084 c 14.239,4.558 21.999,36.324 11.453,46.885 -9.389,9.404 -24.378,-8.458 -24.435,-29.12 -0.034,-12.407 5.606,-20.125 12.982,-17.765 m -49.383,13.573 c 0.41,0.135 1.042,0.38 1.405,0.545 0.363,0.165 0.722,0.301 0.799,0.301 0.344,0 1.6,0.808 2.468,1.588 0.361,0.325 0.712,0.591 0.779,0.591 0.187,0 1.332,1.12 1.841,1.801 0.251,0.336 0.706,0.856 1.009,1.156 1.016,1.001 2.171,2.603 3.759,5.214 1.57,2.581 1.959,3.26 2.756,4.812 l 0.793,1.543 0.02,-0.999 c 0.043,-2.197 -0.453,-1.869 4.347,-2.866 2.233,-0.464 7.666,-1.741 8.38,-1.971 1.208,-0.388 -1.332,-0.903 -4.547,-0.922 -1.758,-0.011 -2.224,-0.051 -1.819,-0.158 0.3,-0.08 1.468,-0.435 2.597,-0.79 l 2.051,-0.645 1.84,0.714 c 1.011,0.392 2.347,0.905 2.968,1.139 1.251,0.472 1.182,0.366 1.6,2.477 0.498,2.514 2.091,7.011 3.555,10.039 0.766,1.584 0.78,1.636 0.444,1.685 -0.191,0.028 -1.152,0.261 -2.137,0.517 -0.984,0.257 -1.947,0.505 -2.14,0.551 -0.256,0.063 -0.35,0.016 -0.35,-0.174 0,-0.243 0.54,-3.486 0.708,-4.252 0.238,-1.088 -0.268,-0.088 -0.7,1.383 -0.28,0.953 -0.852,2.531 -1.27,3.506 -0.419,0.975 -0.761,1.826 -0.761,1.89 -2.27301,5.31825 -5.5124,11.08642 -9.808,13.348 -14.50255,6.20371 -25.90024,-4.74882 -31.593,-17.4 0,-0.068 -0.135,-0.42 -0.3,-0.783 -0.833,-1.83 -1.454,-4.229 -2.188,-8.442 -0.202,-1.161 -0.148,-3.712 0.127,-5.992 0.297,-2.453 2.08,-5.339 4.384,-7.095 2.786,-2.122 6.58,-3.098 8.983,-2.311"
         stroke="none"
         fill="#000000"
         fill-rule="evenodd"
         sodipodi:nodetypes="ccscccccccccccccccccccccscccccccccccccscccsccccccscccccccccccccccccccccccsccsscccsccccccscccccccccccccccccscccccsccscssccsscccccccsccccccccccccssccccccsscccccsccccccccccssccsccccccsccccccccccccccccccccccsccccccccccccccccccccccccccccccccccccccccccccccccccccccsccccccccccccccsscsccccccccccccccccccscccccccccccsccccccccccsccccccccscccsccccscccsccccccscccccccccsscscccccccccccccccccccsccccccccccc"
         style="fill:#ffffff;stroke:none;stroke-width:3;stroke-linecap:butt;stroke-linejoin:round;stroke-miterlimit:4;stroke-dasharray:none;stroke-opacity:1;paint-order:markers stroke fill" />
    </g>
  </g>
</svg>
